<svg xmlns="http://www.w3.org/2000/svg" width="48" height="48" viewBox="0 0 24 24" fill="none" stroke="#1c1917" stroke-width="2" stroke-linecap="round" stroke-linejoin="round" role="img" aria-label="Qalma">
  <g stroke="#8c5a2b">
    <path d="M10.8 11.2C9.3 8.8 7.7 6.9 5.8 5.4" />
    <path d="M12.4 10.4c-.7-2.5-1.4-4.8-2.5-7" />
    <path d="M14 10.2c.1-2.5.4-5 .9-7.4" />
    <path d="M15.6 10.8c.9-2.2 2-4.3 3.2-6.2" />
  </g>
  <path d="M6.7 20c.5-3.2 2-5.8 4.4-7.3 2-1.3 4.5-1.4 6.5-.3" />
  <path d="M17.6 12.6c1.5-.2 3-.5 4.4-.9" />
  <path d="M18.1 14.2c1.5-.4 2.8-1.1 3.9-2.5" />
  <path d="M18.1 14.2c-1 1.6-2.8 2.6-5 2.6-1.4 0-2.7-.4-3.8-1.2" />
  <path d="M14.7 12.9h.01" />
</svg>
